<svg height="569pt" viewBox="-38 0 569 569.286" width="569pt" xmlns="http://www.w3.org/2000/svg"><path d="m38.058594 341.402344h147.53125l-21.335938 56.898437h-21.878906v18.964844h208.632812v-18.964844h-21.878906l-21.335937-56.902343h147.53125c20.949219 0 37.933593-16.984376 37.933593-37.933594v-265.53125c0-20.949219-16.984374-37.933594-37.933593-37.933594h-417.265625c-20.953125 0-37.933594 16.984375-37.933594 37.933594v265.53125c0 20.953125 16.980469 37.9375 37.933594 37.9375zm270.8125 56.898437h-124.363282l21.339844-56.902343h81.6875zm165.417968-94.835937c0 10.476562-8.488281 18.96875-18.964843 18.96875h-417.265625c-10.476563 0-18.96875-8.492188-18.96875-18.96875v-18.964844h455.203125v18.964844zm-455.199218-265.53125c0-10.476563 8.492187-18.96875 18.96875-18.96875h417.265625c10.476562 0 18.964843 8.492187 18.964843 18.96875v227.597656h-455.199218zm0 0"/><path d="m47.542969 436.234375c-5.238281 0-9.484375 4.246094-9.484375 9.484375v113.796875c0 5.238281 4.246094 9.484375 9.484375 9.484375h265.53125c5.238281 0 9.484375-4.246094 9.484375-9.484375v-113.796875c0-5.238281-4.246094-9.484375-9.484375-9.484375zm256.046875 113.800781h-246.566406v-94.835937h246.566406zm0 0"/><path d="m75.992188 512.097656h18.964843v18.96875h-18.964843zm0 0"/><path d="m265.65625 512.097656h18.96875v18.96875h-18.96875zm0 0"/><path d="m75.992188 474.167969h18.964843v18.964843h-18.964843zm0 0"/><path d="m113.925781 474.167969h18.964844v18.964843h-18.964844zm0 0"/><path d="m151.859375 474.167969h18.964844v18.964843h-18.964844zm0 0"/><path d="m189.789062 474.167969h18.96875v18.964843h-18.96875zm0 0"/><path d="m227.722656 474.167969h18.96875v18.964843h-18.96875zm0 0"/><path d="m265.65625 474.167969h18.96875v18.964843h-18.96875zm0 0"/><path d="m113.925781 512.097656h132.765625v18.96875h-132.765625zm0 0"/><path d="m360.492188 483.648438v37.933593c0 26.1875 21.226562 47.417969 47.414062 47.417969s47.417969-21.230469 47.417969-47.417969v-37.933593c0-26.1875-21.230469-47.414063-47.417969-47.414063s-47.414062 21.226563-47.414062 47.414063zm75.867187 0v37.933593c0 15.714844-12.738281 28.449219-28.453125 28.449219-15.710938 0-28.449219-12.734375-28.449219-28.449219v-37.933593c.050781-12.011719 7.640625-22.699219 18.96875-26.703126v26.703126h18.964844v-26.703126c11.328125 4.003907 18.917969 14.691407 18.96875 26.703126zm0 0"/><path d="m300.816406 111.019531-94.828125 94.828125-13.414062-13.410156 94.832031-94.832031zm0 0"/><path d="m253.390625 101.539062-56.898437 56.898438-13.410157-13.414062 56.898438-56.898438zm0 0"/><path d="m310.296875 158.4375-56.898437 56.898438-13.410157-13.410157 56.894531-56.898437zm0 0"/></svg>